<svg xmlns="http://www.w3.org/2000/svg" viewBox="0 0 506.19032 565.52547"><defs><style>.cls-1{fill:#d4145a;}.cls-2{fill:#7e0430;}.cls-3{font-size:105px;stroke:#7e0430;font-family:TimesNewRomanPSMT, Times New Roman;}.cls-3,.cls-4{fill:#ffcb0a;stroke-width:3px;}.cls-3,.cls-4,.cls-5{stroke-miterlimit:10;}.cls-4{stroke:#ff9e3f;}.cls-5{fill:none;stroke:#000;}</style></defs><g id="Ebene_3" data-name="Ebene 3"><path class="cls-1" d="M208.88088,176.97957c-2.13175-2.4786-14.98288-86.3992-20.12412-92.22382s-10.73211-11.916-14.66243-15.46174-7.98183-6.98688-11.82613-9.95221a78.636,78.636,0,0,0-10.58278-7.09713q-4.42791-2.61573-9.04211-4.8617-4.60553-2.23924-9.34536-4.06837-4.73115-1.82239-9.54463-3.1943-4.80481-1.36517-9.64-2.23946l-.21019-.04052-.21019-.04053-.21019-.04052-.21019-.04053-.21019-.04052-.21019-.04053-.21019-.04052-.21019-.04052a40.13785,40.13785,0,0,0-2.94419,4.38142,44.93685,44.93685,0,0,0-2.36109,4.68083c-.69762,1.60421-1.30972,3.24937-1.84795,4.92653s-1.00258,3.38632-1.40473,5.11852-.74208,3.48746-1.03146,5.25681-.52821,3.55279-.72814,5.34138-.361,3.58232-.49475,5.37224-.24034,3.576-.33131,5.3494q-.07678,1.49691-.14207,2.99525-.06458,1.49825-.11336,2.99737-.04808,1.499-.0761,2.99839-.0273,1.49926-.03027,2.99832-.00226,1.49895.0241,2.99716.02708,1.49809.087,2.9949.06068,1.4967.15852,2.99155.09855,1.49477.23856,2.98712a26.61623,26.61623,0,0,0,.59165,3.13553c.31943,1.36854.751,3.02728,1.26457,4.87674s1.10909,3.88963,1.75641,6.021,1.34642,4.354,2.06713,6.56844,5.07449,7.97467,11.22542,15.40429,14.099,16.52857,22.00834,25.42031,15.77987,17.57626,21.77575,24.177,10.11708,11.11774,10.52768,11.6744" transform="translate(-0.01437 -0.01183)"/><path class="cls-2" d="M209.94154,175.91891c.4421.54177.19034.17525.09692.065.21525.25394.088.26426-.0103-.06087-.1154-.38188-.2348-.761-.33767-1.14678-.33481-1.25565-.6113-2.52739-.88341-3.79779-.88111-4.11367-1.65773-8.25009-2.4344-12.38446-2.17567-11.58143-4.25482-23.18078-6.47012-34.7548-1.99189-10.40678-3.93881-20.8732-6.65607-31.12083-.71293-2.68867-1.37283-5.69424-2.78664-8.12476A14.99063,14.99063,0,0,0,188.576,82.2935q-2.7066-3.04467-5.47224-6.03626a143.84892,143.84892,0,0,0-10.46307-10.26259c-4.06833-3.57417-8.25134-7.03622-12.64038-10.21176a107.7994,107.7994,0,0,0-13.2713-8.01478,113.34843,113.34843,0,0,0-31.52734-11.20682q-1.1862-.22227-2.371-.45106a1.58988,1.58988,0,0,0-1.694.68934C102.4541,48.1593,100.62174,62.921,99.85291,76.77273a192.65766,192.65766,0,0,0-.25823,20.43938,47.703,47.703,0,0,0,1.1541,8.974c.75837,3.12,1.65431,6.20775,2.5779,9.2822a65.28911,65.28911,0,0,0,2.69285,8.34247,27.15632,27.15632,0,0,0,2.79371,4.43846c3.542,4.92517,7.45474,9.5914,11.3626,14.22717,8.98128,10.65422,18.26124,21.05747,27.57846,31.41772q7.12144,7.91867,14.29058,15.79424,3.29016,3.62109,6.57725,7.245.96954,1.07236,1.9332,2.15007c.20584.23139.41232.46237.61475.69677.10132.11733.58555.7233.18629.19848,1.15377,1.51662,3.7603.02366,2.59042-1.51415-2.21119-2.9066-4.89485-5.52094-7.347-8.21945q-6.18678-6.80844-12.35951-13.62962c-9.27164-10.26583-18.50228-20.57306-27.51841-31.06476-4.15514-4.83517-8.28319-9.70176-12.2206-14.71693-1.48162-1.88717-2.94338-3.79862-4.27834-5.79346a16.15635,16.15635,0,0,1-2.23354-4.66487c-1.01857-3.18624-1.99708-6.386-2.911-9.60386a72.20112,72.20112,0,0,1-2.0861-8.41164,71.00351,71.00351,0,0,1-.55-9.88907c-.04884-3.33164.01683-6.66405.14307-9.99335.574-15.13731,1.58668-31.66266,11.14161-44.1638l-1.694.68934a115.41683,115.41683,0,0,1,53.43465,24.80522,149.31114,149.31114,0,0,1,11.21165,10.0618c3.75841,3.80245,7.19578,7.88771,10.86222,11.77144.4828.51141-.06763-.24716.19924.25175.094.17566.2017.34344.29308.52111.10394.20208.19565.40971.28895.61678.14057.312-.11306-.29273.04174.10272.06008.15344.121.30645.17941.46056.52633,1.38945.95046,2.81825,1.35293,4.24761,2.7583,9.7962,4.61483,19.87154,6.547,29.85468,2.26244,11.68966,4.37157,23.408,6.55293,35.11291.81673,4.38247,1.63539,8.76558,2.53313,13.13232a46.38694,46.38694,0,0,0,1.68089,6.989,3.52466,3.52466,0,0,0,.60934,1.10931c1.2212,1.49652,3.33256-.637,2.12132-2.12132Z" transform="translate(-0.01437 -0.01183)"/><path class="cls-1" d="M174.25668,209.52671c-7.56688,1.1465-92.92331-25.48478-106.44726-22.49615S36.008,195.1252,29.83573,200.43006a105.21777,105.21777,0,0,0-14.5832,11.32739A118.03947,118.03947,0,0,0,2.36814,225.849l-.2191.28324-.21911.28323-.2191.28323-.2191.28323a42.28472,42.28472,0,0,0,5.55166,8.91344,58.08781,58.08781,0,0,0,7.37687,7.55413,92.24073,92.24073,0,0,0,8.56135,6.49007c2.98,2.01882,6.05064,3.9095,9.10511,5.72126q2.57832,1.52934,5.18511,3.0152,2.60879,1.48048,5.2581,2.88518,2.65131,1.39931,5.35521,2.6905,2.70591,1.2858,5.47645,2.43118c1.27949.52609,3.47245,1.23962,6.12765,2.00095s5.77265,1.57046,8.90111,2.28774,29.94309-5.07765,56.3175-11.10408,52.30862-12.28435,53.67621-12.493" transform="translate(-0.01437 -0.01183)"/><path class="cls-2" d="M173.85792,208.08029c.65329-.09275.07366-.01322-.10394-.01806-.20776-.00565-.41466-.00584-.62238-.01782-.22437-.01295-.4483-.03384-.67183-.05678-.14844-.01524-.29647-.03363-.44468-.05093a.84106.84106,0,0,1-.18189-.02417c-1.50649-.22364-3.00192-.51068-4.49277-.821-4.57475-.95227-9.11328-2.0815-13.64477-3.219-12.35009-3.10014-24.651-6.393-36.99884-9.50206-11.64748-2.93274-23.34924-5.89174-35.20332-7.87722a61.149,61.149,0,0,0-11.45373-1.191,32.3845,32.3845,0,0,0-6.62562,1.196c-4.767,1.12712-9.50905,2.37119-14.19635,3.79537a115.619,115.619,0,0,0-12.538,4.50042,43.66232,43.66232,0,0,0-4.95368,2.484c-1.56674.93363-3.00815,2.0712-4.51907,3.09015A112.378,112.378,0,0,0,3.0466,222.60618c-.88954,1.09123-1.7542,2.20165-2.61553,3.31508A1.60168,1.60168,0,0,0,.19652,227.739c6.5536,14.13748,20.33244,22.91933,33.3195,30.50434a134.90331,134.90331,0,0,0,20.07132,10.13021,96.22147,96.22147,0,0,0,10.22864,3.033c1.95391.49808,3.95617,1.21485,5.99672,1.10387a91.20591,91.20591,0,0,0,11.89962-1.83058c6.60311-1.25238,13.1786-2.65132,19.746-4.07779,15.73406-3.41754,31.42152-7.04943,47.09863-10.718,9.8272-2.29967,19.62777-4.75629,29.4881-6.9111.245-.05354.49012-.112.73781-.15206,1.90091-.30768,1.09423-3.199-.79752-2.89284-2.51781.40753-5.01658,1.13563-7.49691,1.71835q-8.38911,1.97092-16.77649,3.94917c-15.16682,3.56233-30.34207,7.0921-45.552,10.46649-7.08508,1.57186-14.17743,3.11481-21.29073,4.55433-4.82853.97715-9.67565,1.98061-14.56072,2.63709-1.1337.15235-2.25433.22606-3.39391.2747-.50269.02146.15976.05516-.12546-.003-.93873-.19151-1.87037-.43724-2.80046-.66659q-2.86169-.70566-5.699-1.50662a93.90063,93.90063,0,0,1-19.44011-8.3973,173.00461,173.00461,0,0,1-21.68607-13.58182c-6.767-5.14094-12.77051-11.369-16.37658-19.148l-.23454,1.81774a118.46158,118.46158,0,0,1,20.30366-20.81767c2.13488-1.67972,4.34576-3.26513,6.61066-4.76463,1.38878-.91945,2.67494-1.96063,4.12176-2.79642a62.9767,62.9767,0,0,1,11.06418-4.7458c4.55354-1.56881,9.18819-2.90068,13.84865-4.11149q3.39922-.88313,6.82115-1.67578c.98562-.22874,1.97121-.46486,2.962-.6702.10631-.022.21351-.03882.32-.05943.39495-.07644-.28718.02229.12513-.01746a40.93546,40.93546,0,0,1,9.90887.67282c11.43212,1.73986,22.71478,4.58,33.92543,7.37146,12.53723,3.12177,25.02075,6.45288,37.54319,9.63252,4.76668,1.21033,9.53864,2.4102,14.34081,3.473a51.33194,51.33194,0,0,0,8.861,1.52043,7.28479,7.28479,0,0,0,1.34653-.08077c1.90371-.27028,1.09386-3.16136-.79751-2.89284Z" transform="translate(-0.01437 -0.01183)"/><path class="cls-1" d="M173.33948,252.87766c-1.2061,3.0386-57.06938,63.20235-60.05433,72.89965s-5.83041,19.374-6.47858,22.33033-1.15778,5.90054-1.52977,8.84125-.60636,5.8779-.704,8.82008-.05864,5.88936.11616,8.85006.48537,5.93491.93077,8.93118,1.02565,6.01458,1.73981,9.06346,1.56222,6.12833,2.54327,9.24688l.13052.19066.13052.19067.13052.19066.13052.19067.13052.19066.13053.19067.13052.19066.13052.19067a40.13679,40.13679,0,0,0,5.24739.57439,44.9367,44.9367,0,0,0,5.242-.08105c1.74475-.1266,3.48607-.348,5.22146-.64962s3.46483-.68358,5.18581-1.13131,3.43352-.96127,5.13507-1.52612,3.39212-1.181,5.0692-1.83406,3.34065-1.34288,4.98821-2.0551,3.27911-1.44681,4.89213-2.18927q1.36157-.62673,2.71905-1.2643,1.35708-.63817,2.70761-1.29072,1.35012-.65313,2.69121-1.32419,1.3407-.67166,2.66989-1.36475,1.32879-.69369,2.64362-1.41238,1.31442-.71927,2.61242-1.46707,1.29757-.74838,2.57627-1.52883,1.27829-.781,2.53519-1.59768c.57986-.37713,1.29332-.89281,2.10481-1.51393s1.721-1.34765,2.693-2.14651,2.00636-1.67,3.06763-2.58041,2.14939-1.86,3.2288-2.81563,3.68355-7.85513,7.01011-17.69642,7.37553-22.62441,11.34463-35.34739,7.85833-25.38582,10.86537-34.98654,5.13191-16.13935,5.57229-16.61389" transform="translate(-0.01437 -0.01183)"/><path class="cls-2" d="M171.89306,252.4789c.24029-.5756.044-.133-.10764.07465-.11991.16423-.62726.83438-.30973.42851-.57017.72879-1.16057,1.44141-1.75548,2.15005-1.91668,2.28308-3.87988,4.52732-5.84267,6.7707-5.8571,6.6944-11.76008,13.34851-17.61839,20.04186-6.47162,7.39409-12.91486,14.81632-19.19111,22.37756-4.62155,5.56776-9.40846,11.17434-13.29806,17.29336-2.0708,3.25772-2.89916,6.89956-4.00845,10.58445-2.00283,6.65315-4.13929,13.30646-5.3098,20.1679a98.30486,98.30486,0,0,0-.87411,26.93835,112.0836,112.0836,0,0,0,2.27964,13.46556q.7545,3.2517,1.685,6.459a13.502,13.502,0,0,0,1.48951,4.0064c.62035.9062,1.04093,1.52576,2.23175,1.71434a43.69588,43.69588,0,0,0,6.6.54915,55.28888,55.28888,0,0,0,13.43927-1.71848c8.65134-2.12607,16.85273-5.822,24.87651-9.62344,7.07689-3.35287,14.33562-6.89762,20.53724-11.72976,1.6215-1.26342,3.20093-2.58062,4.765-3.91413a33.71182,33.71182,0,0,0,3.98057-3.52012c1.27852-1.51087,1.9397-3.68818,2.65453-5.49324,2.83642-7.16238,5.19141-14.52527,7.57572-21.84729,2.75108-8.44834,5.41842-16.92386,8.06582-25.40516,4.96293-15.89938,9.65149-31.90353,14.92794-47.70273.33894-1.01489.68021-2.02977,1.05059-3.03374.06657-.18045.13593-.35982.20339-.53993.03014-.08048.19185-.52529.06674-.17975.06929-.19136.41873-.6734.02383-.18926,1.21036-1.4839-.89993-3.61874-2.12132-2.12132a10.39815,10.39815,0,0,0-1.40676,3.1856c-.75213,2.14273-1.44663,4.306-2.14037,6.4682-1.9502,6.078-3.836,12.17679-5.72617,18.2737-4.2467,13.69845-8.46546,27.40592-12.81915,41.07089-1.981,6.21793-3.98571,12.429-6.0756,18.61133a154.13281,154.13281,0,0,1-5.579,15.13335c-.26325.57225-.54766,1.12653-.86473,1.67018-.22905.39272.12555-.07389-.12808.181-.63192.63509-1.35679,1.19974-2.033,1.78743-2.49774,2.17077-5.01185,4.36287-7.69189,6.30844a108.07139,108.07139,0,0,1-16.26869,9.19017c-13.98314,6.81206-29.86086,14.309-45.83026,11.57673l.89644.68934a7.6544,7.6544,0,0,1-1.18328-2.1014c-.76907-2.52176-1.47335-5.06237-2.08975-7.62591a105.64481,105.64481,0,0,1-2.594-15.70768,90.97922,90.97922,0,0,1,2.18471-29.96051c.96788-3.80155,2.10387-7.56352,3.22248-11.32264q1.13087-3.80031,2.29182-7.59158c.24049-.7865.48639-1.57164.72913-2.35728.16428-.53169-.08408.11559.12156-.29783a49.23582,49.23582,0,0,1,4.7739-7.30679c6.09273-8.19024,12.79844-15.94088,19.45518-23.6723,7.41133-8.60785,14.935-17.1178,22.43975-25.64407,2.76547-3.14191,5.533-6.28251,8.2626-9.45574a58.716,58.716,0,0,0,4.50577-5.4975,4.43324,4.43324,0,0,0,.42388-.81114,1.5104,1.5104,0,0,0-1.04766-1.84518,1.53661,1.53661,0,0,0-1.84518,1.04766Z" transform="translate(-0.01437 -0.01183)"/><path class="cls-1" d="M231.35222,262.50823c4.69085,4.5549,15.809,101.05313,26.40558,109.33106s28.46792,21.66042,34.53359,24.59333a118.75433,118.75433,0,0,0,18.76441,7.21428,103.02586,103.02586,0,0,0,19.43558,3.67745l.513.04988.513.04988.513.04988.513.04988a42.285,42.285,0,0,0,4.47126-9.50149,58.08648,58.08648,0,0,0,2.33879-10.29626,92.24166,92.24166,0,0,0,.80213-10.71328c.07747-3.59862-.00187-7.20378-.13871-10.75251-.077-1.997-.1676-3.995-.283-5.99139s-.25558-3.99126-.4318-5.98209-.43966-3.9658-.75036-5.93428-.66866-3.93045-1.034-5.8953a80.08649,80.08649,0,0,0-2.53961-8.19688c-1.2432-3.56569-2.686-7.426-3.73744-9.96455s-17.5392-20.33412-33.99358-37.75382-32.87533-34.46356-33.79306-35.49876" transform="translate(-0.01437 -0.01183)"/><path class="cls-2" d="M230.29156,263.56889c.257.25761-.15793-.37064.03779.05123.07575.16328.1737.328.25926.48686.05848.10862.21.5.00958.00656.04647.11442.09515.22846.137.3447.0955.26541.193.52956.28191.79735.49286,1.48418.86983,3.008,1.23017,4.52878,1.12532,4.74913,2.02053,9.554,2.90867,14.35195,2.47259,13.35748,4.71023,26.75728,7.23357,40.10561,2.32385,12.293,4.62679,24.74006,8.40374,36.68742,1.10911,3.50836,2.29257,7.34223,4.4679,10.3627,1.49773,2.07961,3.81075,3.459,5.81407,4.99953q5.7711,4.43781,11.62977,8.76048c3.70834,2.73105,7.44307,5.43047,11.25595,8.01429a64.40327,64.40327,0,0,0,8.42124,5.06748,113.2778,113.2778,0,0,0,36.20295,10.50285c1.31778.143,2.639.25891,3.95834.38719a1.48659,1.48659,0,0,0,1.29521-.74292c8.11459-12.86955,8.24052-28.7045,7.62264-43.4033a154.62289,154.62289,0,0,0-2.24582-21.4592,59.727,59.727,0,0,0-2.47145-8.63438c-1.14528-3.33223-2.34915-6.64885-3.66244-9.9188-1.12068-2.79038-3.20392-4.98017-5.15156-7.23652-3.664-4.24476-7.4567-8.37946-11.25554-12.50326-10.25257-11.12957-20.66775-22.10972-31.10175-33.06893q-7.24735-7.61219-14.51549-15.20453c-2.18221-2.28188-4.437-4.5155-6.54245-6.86943-1.28982-1.442-3.40559.68551-2.12132,2.12132,5.4674,6.11257,11.35085,11.89268,17.0101,17.82624q15.39146,16.13748,30.62333,32.42711c4.22355,4.54306,8.433,9.10086,12.56171,13.73052a88.74474,88.74474,0,0,1,6.863,8.13821,24.03754,24.03754,0,0,1,2.2173,5.27368c1.24522,3.3317,2.443,6.68785,3.50331,10.08344,1.93432,6.19467,2.56554,12.85467,2.97767,19.304,1.01708,15.9158,1.9597,33.82572-6.90171,47.8797l1.29521-.74292a115.59867,115.59867,0,0,1-31.68935-7.44919,69.94726,69.94726,0,0,1-11.5586-5.59212c-3.44165-2.16272-6.768-4.51148-10.07018-6.87959q-5.98222-4.29-11.843-8.74666-2.80763-2.12348-5.59539-4.27305a36.67157,36.67157,0,0,1-3.3777-2.66771,7.437,7.437,0,0,1-.51892-.58163c-.0654-.07921.14931.22441-.09348-.13228-.09132-.13417-.18471-.26669-.27347-.40265a18.69224,18.69224,0,0,1-1.09445-1.95491,41.39281,41.39281,0,0,1-2.08945-5.22152c-3.89934-11.413-6.12776-23.45252-8.40644-35.26912-2.59389-13.4512-4.86884-26.96033-7.32-40.43761-.9252-5.08705-1.85958-10.17667-2.97123-15.22694-.6335-2.878-1.15947-6.08455-2.52861-8.732a4.03442,4.03442,0,0,0-.70031-1.00937,1.50086,1.50086,0,0,0-2.12132,2.12132Z" transform="translate(-0.01437 -0.01183)"/><path class="cls-1" d="M266.81718,237.66747c2.2864-.33548,87.92528,24.7881,96.38677,22.89445s16.943-3.90009,19.30965-4.68671,4.9062-1.76273,7.77162-3.00508,6.05668-2.75092,9.72668-4.60244c3.63594-1.83434,7.00795-3.76415,10.12234-5.72881s5.97113-3.96416,8.57655-5.9379,4.95951-3.9217,7.06856-5.78326,3.97306-3.63675,5.59833-5.2649l.308-.24324.308-.24323.308-.24323.308-.24324a42.2852,42.2852,0,0,0-4.709-9.38592,58.08635,58.08635,0,0,0-6.65143-8.20009,92.238,92.238,0,0,0-7.92868-7.24939c-2.78187-2.28414-5.66575-4.449-8.5408-6.53381q-2.42687-1.75981-4.88607-3.479-2.46169-1.714-4.9707-3.35618-2.51151-1.637-5.08529-3.17126-2.5763-1.529-5.22984-2.92418c-1.22573-.64144-2.99747-1.62921-5.05339-2.74952s-4.396-2.37314-6.75847-3.54471-28.99566,4.38781-55.38939,10.24224-52.548,12.00394-53.95253,12.01261" transform="translate(-0.01437 -0.01183)"/><path class="cls-2" d="M266.81718,239.16747c.48909-.0577-.32309-.09849.15145.00437.34113.07395.685.13512,1.02595.21117,1.16137.25908,2.3153.55259,3.46819.84665,3.85437.98311,7.69478,2.02142,11.53569,3.05555,11.1211,2.99425,22.23432,6.01788,33.37687,8.93177,10.87024,2.84268,21.76354,5.67176,32.76284,7.97752a102.5973,102.5973,0,0,0,10.84118,1.85122,14.0161,14.0161,0,0,0,2.96778.06218,56.16282,56.16282,0,0,0,6.10334-1.33449q3.73219-.85758,7.45483-1.75652a81.72566,81.72566,0,0,0,10.92889-3.34936c4.84465-1.92165,9.56919-4.16356,14.20235-6.54668a123.5399,123.5399,0,0,0,26.47438-18.38049c1.86227-1.69072,3.58639-3.54173,5.55948-5.09982a1.45178,1.45178,0,0,0,.38576-1.45942c-5.21232-14.63976-17.81389-24.58568-30.01546-33.34545a165.91442,165.91442,0,0,0-18.92806-11.98362c-3.0379-1.61151-6.02582-3.31454-9.07795-4.89994-1.61586-.83934-2.90309-1.65324-4.72838-1.62077a76.831,76.831,0,0,0-11.95619,1.64454c-6.44678,1.15186-12.86484,2.46556-19.274,3.80891-15.56293,3.262-31.075,6.7649-46.58185,10.28194-6.97745,1.58252-13.95186,3.17879-20.93393,4.74088-2.17894.48749-4.35823.97463-6.54307,1.43517-.65366.13778-1.30766.27582-1.96444.39813-.20459.0381-.40986.07181-.61467.10849-.37179.06658.41125-.02044.016-.00869-1.92618.05728-1.93433,3.05752,0,3a15.35585,15.35585,0,0,0,2.55061-.43625c1.63741-.336,3.2698-.69694,4.90177-1.05819,5.53263-1.2247,11.05692-2.48724,16.58271-3.74234,15.035-3.415,30.0707-6.82942,45.14351-10.07421,7.02879-1.51311,14.06524-2.99546,21.12359-4.365,4.79026-.92945,9.602-1.88524,14.44914-2.47182a23.43084,23.43084,0,0,1,3.89328-.24774c.43379.02026-.26322-.10006.08273.0133.11542.03782.36922.10968-.1425-.0774a12.01318,12.01318,0,0,1,1.24719.62666c1.72926.87941,3.441,1.79274,5.14558,2.719,6.2771,3.41109,12.50124,6.81894,18.42308,10.83214a168.21409,168.21409,0,0,1,20.00441,15.34073c6.112,5.64916,11.48353,12.257,14.30409,20.179l.38576-1.45942c-2.03513,1.60707-3.8123,3.52047-5.7367,5.2607q-2.86253,2.58859-5.88506,4.99264a119.23231,119.23231,0,0,1-13.227,9.1119,152.255,152.255,0,0,1-14.50077,7.49805,77.70253,77.70253,0,0,1-11.91275,4.57944c-4.44465,1.20488-8.94572,2.21535-13.43456,3.23928-1.33878.30538-2.729.52994-4.04707.91427-.44491.12973.37053.0156-.15438.02454-.44744.00762-.88888.02712-1.3372.007a60.6267,60.6267,0,0,1-9.28659-1.41667c-10.5993-2.11868-21.08587-4.83187-31.54536-7.54446-11.33448-2.93951-22.63608-6.00333-33.94107-9.05369-4.1236-1.11265-8.24664-2.22835-12.37984-3.305-2.15128-.56037-4.32331-1.21372-6.52151-1.56959a3.08276,3.08276,0,0,0-.82206-.0902c-1.89418.22345-1.91672,3.22611,0,3Z" transform="translate(-0.01437 -0.01183)"/><path class="cls-1" d="M268.49871,179.73116c1.46952-4.55719,57.66036-55.81925,60.32117-68.29346s4.989-25.82936,5.12824-33.91033a132.968,132.968,0,0,0-4.90006-38.11309l-.7071-.84233-.70711-.84234A51.70893,51.70893,0,0,0,307.00948,39.349a109.5501,109.5501,0,0,0-20.014,8c-3.57848,1.78064-7.352,3.59937-10.92179,5.69486a44.37094,44.37094,0,0,0-9.69944,7.35547c-1.74671,1.82515-6.9525,7.29-12.16477,12.91612s-21.54325,87.20687-23.31591,89.67687" transform="translate(-0.01437 -0.01183)"/><path class="cls-2" d="M269.94513,180.12992c-.16.46913.05553-.07381.25244-.366.09873-.14653.20625-.28673.31107-.42886.1077-.146-.21258.264.017-.0203.09516-.11788.1896-.23628.28569-.3534.82336-1.00354,1.7006-1.96354,2.58184-2.9161,2.80427-3.03121,5.70777-5.97123,8.60612-8.912,7.96759-8.08417,16.00161-16.10349,23.83442-24.31931,7.04995-7.39469,14.22336-14.88295,20.20882-23.18842,1.66809-2.31466,3.51859-4.88786,4.20559-7.70661,1.18066-4.84424,2.01974-9.81206,2.87105-14.72307.77413-4.46573,1.463-8.95375,1.92165-13.46391a114.2923,114.2923,0,0,0-.89152-27.17763,132.87584,132.87584,0,0,0-2.69917-13.93q-.36551-1.46245-.76383-2.91644a6.69322,6.69322,0,0,0-1.63819-2.61775c-.78149-.93095-1.68752-.91236-2.8512-1.032q-2.133-.21933-4.28017-.2408c-10.17231-.10273-19.9861,3.072-29.18489,7.16414-4.69436,2.08833-9.32328,4.38618-13.86252,6.79263a57.39991,57.39991,0,0,0-12.01979,8.06555c-2.6358,2.41043-5.01568,5.14785-7.46342,7.7447q-2.62922,2.78938-5.24008,5.596a13.781,13.781,0,0,0-1.62581,1.91223,30.43457,30.43457,0,0,0-2.81435,7.10964c-2.88719,9.0691-5.07062,18.377-7.28143,27.62822-2.58384,10.81221-5.02866,21.65694-7.49154,32.49715-1.5737,6.92654-2.945,13.9686-4.95181,20.7877-.09466.32167-.20531.63783-.30356.9581-.15195.4953.19256-.23433-.07908.16188-1.09444,1.59634,1.50423,3.09845,2.59041,1.51416.93117-1.35819,1.16675-3.56374,1.55513-5.11508.92228-3.684,1.76892-7.38707,2.61767-11.08849,2.4591-10.72427,4.8562-21.46265,7.36247-32.1761,2.394-10.23357,4.79353-20.48894,7.72739-30.58413.52269-1.79854,1.06592-3.592,1.66438-5.367.23331-.692.475-1.38134.73288-2.06457.10868-.2879.22153-.574.3354-.85989.01924-.04831.19839-.47583.10691-.26139-.08118.19028.10966-.24857.14152-.31777.1877-.4076.38921-.80345.60875-1.19462.08062-.14365.177-.27788.271-.41275-.29539.42356-.16422.20053-.07356.10316q.68123-.73153,1.35993-1.46546,4.66011-5.0084,9.38068-9.9602a47.76942,47.76942,0,0,1,9.7115-7.96266c4.48864-2.75262,9.27335-5.04171,14.00825-7.33388,9.4174-4.559,19.51577-8.48209,30.09375-8.84472a47.97808,47.97808,0,0,1,7.841.38577l-1.06066-.43933a5.22981,5.22981,0,0,1,1.26816,1.891q.3983,1.46109.76317,2.931.78056,3.14434,1.40731,6.32424a129.17705,129.17705,0,0,1,1.91594,13.34118,110.96362,110.96362,0,0,1-.4788,25.3554c-.63445,4.57717-1.43245,9.13169-2.30258,13.66944q-.6632,3.45858-1.38613,6.90535a21.56184,21.56184,0,0,1-.68781,2.84523c-.04033.11332-.08583.22472-.13017.33649-.07911.19941.10887-.22624-.06544.14448-.13536.28789-.27232.57429-.41918.85656-.314.60358-.65767,1.19169-1.01564,1.77014-.91131,1.4726-1.92,2.88449-2.961,4.2676-5.89477,7.83225-12.75627,14.97851-19.5214,22.05248-7.41133,7.74966-14.99336,15.33253-22.524,22.9655-2.80027,2.83831-5.6015,5.67789-8.33108,8.58459a36.5427,36.5427,0,0,0-4.615,5.39528,4.40875,4.40875,0,0,0-.43721.90618c-.62458,1.83127,2.27211,2.6175,2.89283.79752Z" transform="translate(-0.01437 -0.01183)"/><path class="cls-1" d="M189.16113,269.54309c-18.81462,16.13805-56.15681,45.47473-76.14363,60.136-4.85041,3.558-9.74683,7.14313-15.23439,9.6074a56.62957,56.62957,0,0,1-12.77329,3.829,84.16569,84.16569,0,0,1-56.35616-9.32376l-1.05477-.74693c-1.42758-8.23176.64867-16.77018,4.34472-24.26279s8.94113-14.09594,14.22021-20.57137A135.25515,135.25515,0,0,1,59.244,273.74531c13.42587-12.31888,30.90032-19.071,47.92927-25.55357,6.64-2.5277,13.31244-5.06511,20.26234-6.5408a138.00576,138.00576,0,0,1,17.15923-2.16614c4.71857-.39613,34.1152-2.262,38.83378-2.6581" transform="translate(-0.01437 -0.01183)"/><path class="cls-2" d="M188.10047,268.48243c-16.97631,14.55277-34.59859,28.38373-52.2803,42.06393-8.26627,6.39555-16.57415,12.74293-25.0168,18.90463-5.91264,4.31522-11.9665,8.317-19.02558,10.48107a74.70431,74.70431,0,0,1-20.92747,3.08059,83.29975,83.29975,0,0,1-23.07725-2.97488,80.99,80.99,0,0,1-11.02633-3.8788,47.05608,47.05608,0,0,1-8.39077-4.4093l.68934.89644c-2.67733-16.15379,7.7226-30.4971,17.31587-42.31386,5.00582-6.166,10.08256-12.33305,16.16416-17.48335a95.46954,95.46954,0,0,1,18.38487-11.91769,217.76984,217.76984,0,0,1,20.31351-8.85838c7.39431-2.87248,14.80628-5.89273,22.47207-7.97122,10.47719-2.84078,21.49492-3.19064,32.28232-3.91181,8.677-.58007,17.35826-1.11226,26.031-1.75319.47329-.035.94655-.07053,1.4195-.10991,1.91019-.159,1.92715-3.16044,0-3-7.80268.64961-15.62784,1.077-23.43994,1.596-9.63765.64022-19.38817,1.03152-28.9356,2.54331-8.01162,1.2686-15.61738,3.98737-23.17155,6.85818-6.858,2.60627-13.71834,5.22047-20.42792,8.19361A126.83015,126.83015,0,0,0,68.27928,264.809,87.41344,87.41344,0,0,0,51.38717,279.6758a214.45613,214.45613,0,0,0-14.61865,18.23907c-4.4571,6.30662-8.253,13.222-10.03392,20.78988a37.75415,37.75415,0,0,0-1.01049,11.24148c.10494,1.49529-.02319,3.55958,1.28251,4.51056a26.69143,26.69143,0,0,0,3.54975,2.06574,85.08819,85.08819,0,0,0,20.61,7.44583,86.28291,86.28291,0,0,0,22.05724,1.98142,72.14175,72.14175,0,0,0,22.40333-4.16417c7.00122-2.64125,13.02065-7.03573,18.99935-11.43719q6.30938-4.64492,12.53438-9.40319,14.99491-11.412,29.75-23.13583c9.40172-7.45342,18.7562-14.9715,27.95646-22.67293q2.6898-2.2516,5.35468-4.53272c1.46813-1.25853-.66213-3.37218-2.12132-2.12132Z" transform="translate(-0.01437 -0.01183)"/><path class="cls-1" d="M169.21209,220.31715c-23.918-6.5083-68.8962-20.86963-92.25029-29.17705-5.66758-2.016-11.38342-4.05495-16.50366-7.21234a56.62923,56.62923,0,0,1-10.34024-8.42009,84.1657,84.1657,0,0,1-23.92632-51.86985l.02588-1.29219c6.01029-5.80315,14.24159-8.879,22.51694-10.02733s16.68453-.51549,25.007.21727a135.25418,135.25418,0,0,1,19.31419,2.70217c17.732,4.19339,33.13061,14.86252,48.05605,25.31432,5.81977,4.0754,11.66582,8.17223,16.789,13.09476a138.00669,138.00669,0,0,1,11.42672,12.98312c2.97709,3.68223,14.33437,20.884,17.31147,24.56619" transform="translate(-0.01437 -0.01183)"/><path class="cls-2" d="M169.61085,218.87073c-21.93874-5.97656-43.63639-12.92276-65.23688-20.01129-10.31847-3.38616-20.64676-6.78955-30.839-10.54254-7.00926-2.581-13.50286-5.80462-19.123-10.80151a78.38937,78.38937,0,0,1-13.03351-15.05923A83.17216,83.17216,0,0,1,28.79193,131.716a45.84109,45.84109,0,0,1-1.07447-9.37036l-.43934,1.06066c10.38717-9.89243,25.54824-10.80471,39.103-9.94856a190.15594,190.15594,0,0,1,22.31732,2.3996,82.36943,82.36943,0,0,1,19.57225,6.28847c12.543,5.77877,23.88573,13.88645,35.11867,21.83394a105.142,105.142,0,0,1,16.40125,13.72634,124.53529,124.53529,0,0,1,10.26576,12.40432c2.84561,3.98139,5.58431,8.03945,8.35671,12.07182,2.32861,3.38688,4.58909,6.867,7.16508,10.07457,1.2089,1.50527,3.31955-.62933,2.12132-2.12132-.25863-.322-.56452-.73052-.95881-1.26917-.55142-.7533-1.09217-1.51442-1.63012-2.27737-1.26876-1.79941-2.51865-3.61211-3.76665-5.42594-2.67182-3.88316-5.31647-7.786-8.03613-11.636a138.32336,138.32336,0,0,0-9.8203-12.2157,102.23329,102.23329,0,0,0-17.07213-14.84639c-11.66855-8.35849-23.54818-16.88231-36.63049-22.90956a85.457,85.457,0,0,0-20.52281-6.63385,198.699,198.699,0,0,0-23.37238-2.49421c-7.617-.45921-15.36843-.38334-22.81777,1.4491-6.32611,1.55614-12.9564,4.43623-17.61774,9.12533a3.11663,3.11663,0,0,0-.76259,2.63606,47.1195,47.1195,0,0,0,.604,5.25833,82.73959,82.73959,0,0,0,1.964,9.57537,86.56679,86.56679,0,0,0,7.33674,18.51066,85.2555,85.2555,0,0,0,11.3915,16.3184,59.752,59.752,0,0,0,16.45266,13.48313c5.71407,3.01436,11.91378,5.044,17.99773,7.16774q7.34074,2.56251,14.7195,5.01452c22.24225,7.42768,44.61114,14.56619,67.16649,20.98775q3.23968.92235,6.48915,1.80985a1.50128,1.50128,0,0,0,.79752-2.89284Z" transform="translate(-0.01437 -0.01183)"/><path class="cls-1" d="M203.83629,179.73116c-6.62055-23.88713-15.86561-75.13477-20.6514-99.456-1.16141-5.90229-2.32784-11.85775-2.22845-17.8724a56.6286,56.6286,0,0,1,1.95781-13.19036,84.16575,84.16575,0,0,1,32.374-47.06245l1.12416-.63773c8.05887,2.20332,14.90739,7.70906,20.12121,14.23716s8.96471,14.081,12.58537,21.61028a135.256,135.256,0,0,1,7.54146,17.98516c5.45132,17.38655,4.14345,36.07442,2.78078,54.24451-.53134,7.08493-1.0677,14.2034-2.68309,21.12215a138.00687,138.00687,0,0,1-5.3259,16.455c-1.64519,4.44018-14.99533,28.12453-16.64052,32.56471" transform="translate(-0.01437 -0.01183)"/><path class="cls-2" d="M205.28271,179.3324c-2.78524-10.07321-4.98422-20.31241-7.13613-30.5359-2.58208-12.26715-4.99039-24.57047-7.36033-36.88012-2.003-10.40353-3.95446-20.81717-5.9927-31.21388-1.57975-8.05806-3.06957-16.092-1.83766-24.31305a75.60016,75.60016,0,0,1,6.30141-20.48456A82.837,82.837,0,0,1,214.45485,4.60665a25.3493,25.3493,0,0,1,2.71463-1.79923l-1.15584.15121c13.97649,3.92116,22.52015,16.68335,28.74538,28.923a177.44479,177.44479,0,0,1,9.62844,21.37888,86.31114,86.31114,0,0,1,4.47575,23.08447,185.8991,185.8991,0,0,1-.23231,23.421c-.49474,8.03561-.90912,16.16186-2.1063,24.1287-1.19272,7.93719-3.78409,15.41436-6.55448,22.91477-.03339.0904-.07014.17948-.10572.269-.02064.052.09477-.21583-.02458.05769-.12829.294-.26189.5856-.39776.87615-.3114.666-.63631,1.3256-.9649,1.9832-.8742,1.74951-1.77924,3.48363-2.68912,5.21478-3.93734,7.49128-8.27262,14.852-11.78057,22.55873-.23433.51479-.46279,1.034-.66218,1.56345-.68123,1.80879,2.21762,2.59035,2.89284.79752.0331-.08789.06614-.1759.10189-.26275.09418-.22881-.1128.25391.0441-.10565.11814-.27072.24077-.53942.36545-.80717.32106-.68946.65728-1.37189.99721-2.05219.91367-1.82849,1.86069-3.64033,2.81241-5.44923,2.31622-4.40235,4.67709-8.781,7.0021-13.17871,1.69441-3.20493,3.47573-6.40358,4.91653-9.734,1.31206-3.03282,2.35569-6.21955,3.39956-9.35249a85.605,85.605,0,0,0,3.15-12.108c1.45908-8.22826,1.89606-16.64224,2.4527-24.96924a203.45082,203.45082,0,0,0,.46537-24.37,91.72145,91.72145,0,0,0-4.12925-23.701c-2.54429-7.76491-6.21205-15.17661-9.86091-22.47075C241.5464,18.75742,232.91978,5.55439,218.70685.65166A7.45416,7.45416,0,0,0,216.4124.01221,3.36579,3.36579,0,0,0,214.88685.653a33.4224,33.4224,0,0,0-3.5012,2.55456,82.94188,82.94188,0,0,0-7.65924,6.783A86.46687,86.46687,0,0,0,191.12213,26.0603c-7.59169,12.46742-12.88576,27.687-11.38155,42.41831.65022,6.3678,2.09515,12.64,3.30508,18.919q1.53782,7.98059,3.05488,15.96516c2.34235,12.255,4.70185,24.50723,7.1894,36.73377,2.29165,11.26363,4.64314,22.52708,7.43337,33.67954q.79718,3.18628,1.66656,6.35385a1.50128,1.50128,0,0,0,2.89284-.79752Z" transform="translate(-0.01437 -0.01183)"/><path class="cls-1" d="M255.42865,176.75027c18.06208-16.9761,49.72039-45.03539,69.02054-60.58952,4.68377-3.77468,9.41227-7.57854,14.78222-10.28954a56.62886,56.62886,0,0,1,12.58615-4.40536,84.1657,84.1657,0,0,1,56.72155,6.754l1.08761.69824c1.80006,8.15842.11384,16.78234-3.238,24.43512s-8.29155,14.48756-13.271,21.19613A135.25584,135.25584,0,0,1,380.70812,169.594c-12.85239,12.91608-30.00206,20.455-46.71893,27.70452-6.51829,2.82674-13.0686,5.66465-19.94428,7.45454a138.00658,138.00658,0,0,1-17.04311,2.94341c-4.69571.61008-25.18317,1.22017-29.87888,1.83025" transform="translate(-0.01437 -0.01183)"/><path class="cls-2" d="M256.48931,177.81093c16.17681-15.19823,32.799-29.94536,49.6469-44.394,8.10522-6.951,16.20934-14.01661,24.75024-20.43276a54.73586,54.73586,0,0,1,18.204-9.26655,79.43182,79.43182,0,0,1,19.522-2.903,83.25745,83.25745,0,0,1,31.976,5.50437,45.25123,45.25123,0,0,1,8.28122,3.89433l-.68934-.89645c3.0592,14.37465-4.53956,28.0207-12.58858,39.31656A189.291,189.291,0,0,1,382.359,165.66444a81.85113,81.85113,0,0,1-15.1124,13.01509c-11.1043,7.49028-23.50437,12.785-35.75368,18.07709-6.70662,2.89749-13.49369,5.64722-20.65051,7.22107a117.35315,117.35315,0,0,1-16.81775,2.48661c-4.84842.34323-9.708.53566-14.56234.77377-4.10238.20122-8.26058.27273-12.33941.78864-1.88961.239-1.9135,3.242,0,3,3.58311-.45321,7.23147-.53415,10.83519-.71424,4.58489-.22913,9.17182-.42627,13.75441-.69937a141.80187,141.80187,0,0,0,14.26134-1.67564,97.06754,97.06754,0,0,0,21.43591-6.22071c12.49256-5.12757,25.154-10.49249,36.728-17.49606A94.46224,94.46224,0,0,0,379.948,172.4225a121.29406,121.29406,0,0,0,13.91038-16.3699c8.45409-11.35942,17.14019-23.6371,17.94587-38.2807a34.32376,34.32376,0,0,0-.07224-4.89021c-.07668-.87209-.18723-1.74315-.32585-2.60756a4.52284,4.52284,0,0,0-.71879-2.41673,9.13057,9.13057,0,0,0-2.56064-1.51235c-1.55151-.75332-3.12815-1.45261-4.72145-2.1127a84.02537,84.02537,0,0,0-19.65088-5.44674c-13.45-2.02187-27.94376-1.16074-40.71162,3.77595-6.66529,2.57713-12.35271,6.69071-17.89458,11.12385q-6.1808,4.94423-12.23012,10.04961-27.234,22.87038-53.3283,47.08785-2.61993,2.42367-5.2218,4.86674c-1.41,1.32475.7144,3.44313,2.12132,2.12132Z" transform="translate(-0.01437 -0.01183)"/><path class="cls-1" d="M275.37769,229.71842c24.01663,6.1342,63.51751,18.89179,86.99842,26.8337,5.69835,1.92734,11.44532,3.87678,16.61421,6.95387a56.62923,56.62923,0,0,1,10.47041,8.25768,84.16569,84.16569,0,0,1,24.733,51.49009l-.0057,1.29244c-5.919,5.89624-14.10127,9.10021-22.35769,10.37754s-16.67445.77584-25.00732.17307a135.25452,135.25452,0,0,1-19.354-2.40039c-17.7953-3.91612-33.35854-14.34362-48.4453-24.56119-5.88267-3.98406-11.79195-7.98916-16.99137-12.83112a138.00487,138.00487,0,0,1-11.628-12.80319c-3.0342-3.63531-18.59116-23.46566-21.62537-27.101" transform="translate(-0.01437 -0.01183)"/><path class="cls-2" d="M274.97894,231.16484c21.88163,5.59857,43.44547,12.5298,64.9163,19.51444q7.69743,2.504,15.37579,5.06621c5.511,1.83975,11.10774,3.55276,16.46506,5.80981,12.04955,5.07648,21.53142,14.91143,28.45479,25.82024a83.03166,83.03166,0,0,1,11.43087,28.61813,43.87475,43.87475,0,0,1,1.06625,8.55253l.43934-1.06066c-10.77892,10.59123-26.80834,11.28662-41.00708,10.46432-7.93814-.45972-15.98265-.93541-23.77563-2.59659a88.00022,88.00022,0,0,1-20.6715-7.42472,183.213,183.213,0,0,1-18.69483-10.938c-6.184-4.04-12.38517-8.12225-18.32233-12.51947-9.35787-6.9307-16.68812-15.82136-23.88814-24.87182-5.63683-7.08553-11.1332-14.30239-16.9282-21.26-1.23685-1.485-3.34914.64719-2.12132,2.12132,5.05615,6.07049,9.86289,12.35845,14.773,18.54679,6.40414,8.07132,12.7239,16.45427,20.5495,23.21115,5.66642,4.89258,11.95562,9.0133,18.15224,13.1903,5.87772,3.962,11.80378,7.86624,17.96693,11.37411a113.92434,113.92434,0,0,0,19.46645,8.985,94.91138,94.91138,0,0,0,22.35516,4.36764c14.54048,1.29883,30.16122,2.71457,43.8487-3.4573a36.72953,36.72953,0,0,0,8.29459-5.1468c1.017-.83926,2.49277-1.77279,2.564-3.18726a19.86594,19.86594,0,0,0-.27165-3.52067,85.564,85.564,0,0,0-26.84159-51.9556A57.49107,57.49107,0,0,0,370.0185,257.6599c-5.58527-2.13122-11.30894-3.933-16.98165-5.81661-23.15093-7.68735-46.40869-15.19664-69.94337-21.63164q-3.65092-.99825-7.317-1.93965c-1.87132-.47879-2.66961,2.41385-.79751,2.89284Z" transform="translate(-0.01437 -0.01183)"/><path class="cls-1" d="M245.00567,265.94772c4.56866,24.363,10.90366,76.61132,13.60732,101.25106.65613,5.97958,1.31273,12.01257.70306,17.99706a56.62891,56.62891,0,0,1-3.07059,12.97652,84.16566,84.16566,0,0,1-36.25267,44.144l-1.17424.54c-7.84271-2.87955-14.19907-8.94685-18.83984-15.894s-7.73688-14.79121-10.70524-22.60075a135.25515,135.25515,0,0,1-5.98731-18.56049c-3.95554-17.78658-1.06581-36.296,1.83457-54.28474,1.13093-7.01425,2.2697-14.06148,4.46666-20.81811a138.00564,138.00564,0,0,1,6.70368-15.9434c2.01622-4.28448,14.24238-23.05526,16.2586-27.33973" transform="translate(-0.01437 -0.01183)"/><path class="cls-2" d="M243.55925,266.34648c1.93185,10.32647,3.43382,20.73563,4.89238,31.13761,1.75136,12.49013,3.3593,25.00039,4.897,37.5185q1.93983,15.79211,3.69953,31.606c.8966,8.143,1.66911,16.24751-.2227,24.3142a75.24873,75.24873,0,0,1-8.049,19.99053,82.77014,82.77014,0,0,1-27.86858,29.09254,25.27052,25.27052,0,0,1-2.84636,1.55527l1.15584-.15122c-12.82029-4.804-20.29451-17.37071-25.317-29.37964a211.77576,211.77576,0,0,1-7.59319-20.6483,82.91783,82.91783,0,0,1-3.42634-22.13169,149.7224,149.7224,0,0,1,1.45118-22.48994c.96655-7.4622,2.14782-14.92154,3.49167-22.32508a100.15325,100.15325,0,0,1,12.273-33.4027c2.57345-4.32342,5.25224-8.58379,7.88826-12.86909a109.03053,109.03053,0,0,0,5.86-9.99131c.826-1.7342-1.75976-3.2582-2.59042-1.51415a104.10189,104.10189,0,0,1-5.55548,9.496c-2.56507,4.17538-5.1696,8.32711-7.69259,12.5282a110.39846,110.39846,0,0,0-6.52148,12.97279,100.90436,100.90436,0,0,0-6.72116,22.91614c-1.41361,7.99679-2.693,16.04177-3.67233,24.10383a135.28123,135.28123,0,0,0-1.06846,24.14552,88.86773,88.86773,0,0,0,4.77835,23.66283,207.86,207.86,0,0,0,8.66927,21.91242,59.78075,59.78075,0,0,0,12.19756,17.75479,38.91481,38.91481,0,0,0,8.07514,6.02457,18.57809,18.57809,0,0,0,4.67651,2.12769c.92528.19267,2.05647-.52466,2.83422-.99174a85.79889,85.79889,0,0,0,28.19926-27.69851,84.07519,84.07519,0,0,0,8.61251-18.13168,58.01723,58.01723,0,0,0,2.64711-11.36928,60.992,60.992,0,0,0,.0567-12.35118c-.877-10.81118-2.345-21.60463-3.64363-32.37151q-2.20647-18.29322-4.65994-36.55566c-1.49126-11.02093-3.04187-22.03969-4.8991-33.00578q-.53241-3.14363-1.11483-6.27848c-.35457-1.8953-3.24644-1.09262-2.89284.79752Z" transform="translate(-0.01437 -0.01183)"/><text class="cls-3" transform="translate(49.62375 531.82805)">Gutjahr</text></g><g id="Ebene_2" data-name="Ebene 2"><polygon class="cls-4" points="221.387 252.876 197.557 239.118 197.557 211.602 221.387 197.844 245.216 211.602 245.216 239.118 221.387 252.876"/><polygon class="cls-4" points="196.779 210.253 172.949 196.495 172.949 168.979 196.779 155.221 220.608 168.979 220.608 196.495 196.779 210.253"/><polygon class="cls-4" points="172.505 252.876 148.675 239.118 148.675 211.602 172.505 197.844 196.334 211.602 196.334 239.118 172.505 252.876"/><polygon class="cls-4" points="196.779 294.919 172.949 281.161 172.949 253.645 196.779 239.887 220.608 253.645 220.608 281.161 196.779 294.919"/><polygon class="cls-4" points="245.661 294.919 221.831 281.161 221.831 253.645 245.661 239.887 269.49 253.645 269.49 281.161 245.661 294.919"/><polygon class="cls-4" points="269.6 252.876 245.77 239.118 245.77 211.602 269.6 197.844 293.429 211.602 293.429 239.118 269.6 252.876"/><polygon class="cls-4" points="244.991 210.253 221.162 196.495 221.162 168.979 244.991 155.221 268.821 168.979 268.821 196.495 244.991 210.253"/><path class="cls-5" d="M221.29206,195.72815" transform="translate(-0.01437 -0.01183)"/><path class="cls-5" d="M221.51716,3.30268" transform="translate(-0.01437 -0.01183)"/></g></svg>